<?xml version="1.0" encoding="utf-8"?>
<!-- Generator: Adobe Illustrator 16.0.0, SVG Export Plug-In . SVG Version: 6.00 Build 0)  -->
<!DOCTYPE svg PUBLIC "-//W3C//DTD SVG 1.1//EN" "http://www.w3.org/Graphics/SVG/1.1/DTD/svg11.dtd">
<svg version="1.1" id="Layer_1" xmlns="http://www.w3.org/2000/svg" xmlns:xlink="http://www.w3.org/1999/xlink" x="0px" y="0px"
	 width="478.047px" height="467.829px" viewBox="0 0 478.047 467.829" enable-background="new 0 0 478.047 467.829"
	 xml:space="preserve">
<g>
	<path fill="#FFFFFF" d="M36.811,0c128.945,0,257.891,0,386.894,0c0,135.903,0,271.806,0,407.829c-141.135,0-282.328,0-423.705,0
		C0,271.966,0,135.983,0,0c9.154,0,18.483,0,27.813,0C22.73,2.278,16.987,3.697,12.69,6.997C0.653,16.241-2.543,31.694,3.903,45.063
		c6.256,12.973,20.283,19.554,35.066,16.694c1.611-0.312,4.029,0.136,5.146,1.202c14.565,13.908,28.928,28.026,43.434,41.996
		c2.315,2.229,2.748,3.699,0.504,6.539c-17.849,22.599-28.421,48.411-31.012,76.981c-3.954,43.611,7.416,82.988,35.222,117.227
		c3.424,4.216,7.089,8.235,10.762,12.483c-8.49,8.866-16.8,17.486-25.043,26.17c-7.56,7.963-16.062,15.284-22.288,24.19
		c-6.504,9.305-10.867,20.122-15.941,30.391c-0.649,1.315-0.568,3.955,0.309,4.791c0.897,0.854,3.5,0.851,4.823,0.176
		c8.439-4.307,16.783-8.812,25.042-13.454c2.559-1.439,5.02-3.259,7.082-5.344c9.014-9.109,17.733-18.515,26.815-27.556
		c7.174-7.142,14.721-13.911,22.244-20.979c67.291,42.87,152.721,27.736,199.889-24.429c25.324-28.007,39.391-61.038,41.439-98.636
		c2.037-37.354-9.441-70.997-31.42-101.193c14.656-15.356,29.088-30.551,43.68-45.59c0.932-0.958,3.195-1.216,4.686-0.945
		c14.348,2.61,28.268-3.804,34.568-16.117c6.41-12.52,3.941-27.502-6.105-37.075c-9.463-9.015-24.375-11.166-35.652-5.141
		c-12.791,6.833-18.961,19.452-16.135,34.391c0.617,3.259-0.354,4.838-2.295,6.813c-6.646,6.764-13.098,13.725-19.787,20.444
		c-7.26,7.289-14.707,14.392-21.736,21.249c-68.318-53.689-137.331-53.664-207.586-2.918C94.69,73.145,79.369,58.591,64.249,43.831
		c-1.329-1.296-2.125-4.057-1.84-5.936c1.334-8.777,0.04-16.831-4.952-24.285C52.457,6.148,44.911,2.687,36.811,0z"/>
	<path d="M36.811,0c8.1,2.687,15.646,6.148,20.644,13.612c4.992,7.454,6.286,15.508,4.952,24.285
		c-0.286,1.879,0.511,4.639,1.84,5.936c15.12,14.76,30.441,29.314,45.364,43.594c70.256-50.746,139.268-50.771,207.586,2.918
		c7.029-6.857,14.477-13.959,21.736-21.249c6.689-6.719,13.141-13.68,19.787-20.444c1.939-1.975,2.912-3.554,2.295-6.813
		c-2.826-14.939,3.344-27.558,16.135-34.391c11.277-6.025,26.189-3.875,35.652,5.141c10.047,9.572,12.516,24.555,6.105,37.075
		c-6.301,12.313-20.223,18.727-34.568,16.117c-1.488-0.271-3.756-0.013-4.686,0.945c-14.592,15.039-29.021,30.233-43.68,45.59
		c21.979,30.196,33.457,63.839,31.42,101.193c-2.051,37.599-16.115,70.629-41.439,98.636
		c-47.168,52.165-132.598,67.299-199.889,24.429c-7.523,7.066-15.07,13.837-22.244,20.979c-9.082,9.041-17.802,18.445-26.815,27.557
		c-2.062,2.084-4.522,3.902-7.082,5.343c-8.26,4.644-16.603,9.147-25.042,13.454c-1.322,0.675-3.926,0.68-4.823-0.175
		c-0.877-0.836-0.958-3.477-0.309-4.791c5.074-10.27,9.437-21.086,15.941-30.392c6.226-8.906,14.729-16.229,22.288-24.19
		c8.244-8.684,16.554-17.304,25.043-26.169c-3.673-4.248-7.338-8.27-10.762-12.484c-27.807-34.238-39.176-73.615-35.222-117.227
		c2.59-28.57,13.163-54.382,31.012-76.981c2.244-2.84,1.811-4.31-0.504-6.539C73.041,90.988,58.678,76.87,44.113,62.961
		c-1.116-1.066-3.535-1.514-5.146-1.202c-14.784,2.86-28.81-3.721-35.066-16.694c-6.447-13.369-3.25-28.822,8.787-38.066
		c4.297-3.3,10.04-4.719,15.123-6.997C30.812,0,33.812,0,36.811,0z M278.199,84.688c-3.082,3.465-5.552,6.371-8.156,9.152
		c-62.613,66.857-95.701,147.403-109.699,236.771c-0.187,1.192,0.777,3.408,1.756,3.815c12.341,5.132,25.195,8.22,38.943,9.298
		c7.732-91.4,44.678-169.495,106.75-237.414C297.898,99.081,288.43,92.164,278.199,84.688z M151.036,330.188
		c15.088-95.451,50.975-179.488,118.373-249.07c-3.634-1.475-6.91-2.63-10.025-4.123c-2.529-1.21-4.199-0.685-6.06,1.357
		c-14.228,15.623-28.933,30.827-42.782,46.776c-46.682,53.761-72.05,117.025-82.204,186.899c-0.193,1.327,0.476,3.472,1.482,4.17
		C136.473,320.824,143.329,325.158,151.036,330.188z M210.168,343.816c4.196,0,7.494,0.136,10.776-0.038
		c3.319-0.178,6.712-0.323,9.895-1.161c1.403-0.37,3.132-2.278,3.389-3.724c0.812-4.571,0.927-9.264,1.437-13.896
		c6.459-58.802,27.688-111.736,63.647-158.655c8.979-11.717,18.969-22.661,28.979-34.536c-4.441-5.78-9.137-11.89-14.33-18.651
		C253.788,179.102,218.083,254.878,210.168,343.816z M107.747,115.971c18.408,20.031,36.691,39.926,55.1,59.958
		c9.917-14.781,19.16-28.561,27.514-41.013c-15.867-15.945-31.666-31.821-47.969-48.204
		C130.272,93.73,118.401,103.421,107.747,115.971z M331.799,272.854c7.523-13.192,12.721-27.03,15.258-41.507
		c-20.414-9.954-40.381-19.689-61.445-29.962c-7.628,15.646-15.302,31.388-23.173,47.53
		C285.15,260.355,307.77,268.191,331.799,272.854z M142.907,218.667c5.032-10.834,9.493-20.852,14.361-30.669
		c1.456-2.936,1.01-4.513-1.147-6.774c-13.669-14.32-27.207-28.767-40.69-43.264c-4.484-4.82-8.677-9.913-13.214-15.123
		c-9.191,12.158-15.986,25.037-20.641,39.004c-0.446,1.338,0.555,3.84,1.708,4.923c10.554,9.899,21.124,19.795,32.026,29.304
		C124.182,203.807,133.518,211.013,142.907,218.667z M126.106,272.365c4.276-13.928,8.219-27.319,12.577-40.576
		c1.1-3.343,0.313-4.852-2.258-6.95c-14.185-11.578-28.215-23.349-42.18-35.192c-5.497-4.662-10.69-9.682-16.497-14.974
		c-3.693,15.167-4.474,29.658-3.473,44.372c0.443,6.516,2.801,11.436,7.4,16.114C95.259,248.979,109.806,261.548,126.106,272.365z
		 M196.267,126.699c16.932-18.69,32.814-36.224,48.994-54.082c-32.067-8.065-62.628-5.068-93.637,9.092
		C166.922,97.125,181.644,111.962,196.267,126.699z M290.003,193.253c20.456,10.048,39.153,19.232,58.68,28.823
		c3.105-29.393-2.064-55.781-15.828-82.383C318.479,157.663,304.741,174.833,290.003,193.253z M326.551,282.787
		c-22.806-7.958-44.808-15.635-67.229-23.459c-1.997,6.844-4.332,14.462-6.33,22.168c-0.258,0.995,0.939,3.147,1.962,3.577
		c16.09,6.748,32.242,13.348,48.453,19.8c1.169,0.466,3.46,0.059,4.273-0.824C314.189,296.979,320.471,289.697,326.551,282.787z
		 M31.871,12.003c-10.752,0.01-19.338,8.503-19.395,19.186c-0.058,10.866,8.848,19.8,19.591,19.654
		C42.531,50.7,51.359,41.72,51.33,31.248C51.301,20.748,42.448,11.994,31.871,12.003z M371.932,34.945
		c-0.014,10.743,8.549,19.612,19.025,19.708c10.855,0.101,19.746-8.643,19.787-19.455c0.039-10.531-8.693-19.37-19.271-19.506
		C381.127,15.56,371.945,24.605,371.932,34.945z M298.475,313.331c-16.938-6.94-32.501-13.317-48.66-19.94
		c-1.619,9.417-3.177,18.473-4.824,28.051c10.151,2.012,19.559,3.896,28.979,5.708c0.926,0.178,2.145,0.229,2.88-0.224
		C283.833,322.633,290.742,318.218,298.475,313.331z M119.601,307.878c1.561-8.315,3.118-15.938,4.292-23.619
		c0.174-1.138-1.189-2.908-2.312-3.773c-3.951-3.048-8.264-5.632-12.154-8.749c-9.544-7.646-18.93-15.49-28.979-23.748
		C88.466,271.497,101.261,291.06,119.601,307.878z M260.152,334.995c-0.072-0.404-0.146-0.811-0.219-1.214
		c-5.179-1.026-10.358-2.055-15.894-3.15c-0.191,3.677-0.327,6.272-0.504,9.635C249.548,338.359,254.85,336.677,260.152,334.995z"/>
	<path fill="#FFFFFF" d="M278.199,84.688c10.231,7.476,19.699,14.393,29.596,21.623c-62.073,67.919-99.019,146.012-106.751,237.414
		c-13.749-1.078-26.602-4.166-38.943-9.298c-0.979-0.407-1.943-2.623-1.756-3.815c13.998-89.366,47.086-169.913,109.699-236.771
		C272.647,91.06,275.117,88.154,278.199,84.688z"/>
	<path fill="#FFFFFF" d="M151.036,330.188c-7.707-5.028-14.563-9.362-21.216-13.989c-1.006-0.698-1.675-2.842-1.482-4.17
		c10.154-69.874,35.522-133.139,82.204-186.899c13.851-15.949,28.556-31.153,42.782-46.776c1.859-2.042,3.529-2.567,6.06-1.357
		c3.115,1.492,6.393,2.648,10.025,4.123C202.01,150.699,166.124,234.735,151.036,330.188z"/>
	<path fill="#FFFFFF" d="M210.168,343.816c7.914-88.938,43.619-164.715,103.791-230.659c5.195,6.761,9.891,12.871,14.332,18.651
		c-10.012,11.875-20,22.818-28.979,34.536c-35.96,46.918-57.188,99.854-63.647,158.655c-0.51,4.632-0.625,9.323-1.437,13.896
		c-0.257,1.444-1.984,3.354-3.389,3.724c-3.183,0.838-6.574,0.983-9.895,1.161C217.663,343.952,214.365,343.816,210.168,343.816z"/>
	<path fill="#FFFFFF" d="M107.747,115.971c10.654-12.549,22.525-22.24,34.645-29.259c16.304,16.382,32.102,32.258,47.969,48.204
		c-8.354,12.452-17.598,26.231-27.514,41.013C144.438,155.896,126.154,136.001,107.747,115.971z"/>
	<path fill="#FFFFFF" d="M331.799,272.854c-24.029-4.662-46.649-12.498-69.36-23.938c7.871-16.144,15.545-31.885,23.173-47.53
		c21.064,10.271,41.031,20.007,61.445,29.961C344.52,245.823,339.324,259.661,331.799,272.854z"/>
	<path fill="#FFFFFF" d="M142.907,218.667c-9.39-7.654-18.725-14.86-27.597-22.599c-10.903-9.509-21.472-19.405-32.026-29.304
		c-1.153-1.083-2.154-3.585-1.708-4.923c4.655-13.967,11.45-26.846,20.641-39.004c4.537,5.21,8.73,10.303,13.214,15.123
		c13.483,14.498,27.021,28.944,40.69,43.264c2.157,2.261,2.603,3.838,1.147,6.774C152.4,197.815,147.939,207.833,142.907,218.667z"
		/>
	<path fill="#FFFFFF" d="M126.106,272.365c-16.3-10.817-30.847-23.388-44.431-37.206c-4.599-4.681-6.957-9.6-7.4-16.114
		c-1-14.714-0.22-29.205,3.473-44.372c5.807,5.292,11,10.312,16.497,14.974c13.965,11.843,27.996,23.614,42.18,35.192
		c2.571,2.099,3.358,3.607,2.258,6.95C134.324,245.046,130.381,258.438,126.106,272.365z"/>
	<path fill="#FFFFFF" d="M196.267,126.699c-14.623-14.736-29.345-29.573-44.643-44.99c31.008-14.16,61.569-17.157,93.637-9.092
		C229.083,90.475,213.199,108.009,196.267,126.699z"/>
	<path fill="#FFFFFF" d="M290.003,193.253c14.737-18.42,28.475-35.59,42.852-53.56c13.766,26.602,18.934,52.99,15.828,82.383
		C329.156,212.485,310.459,203.301,290.003,193.253z"/>
	<path fill="#FFFFFF" d="M326.551,282.787c-6.08,6.91-12.361,14.191-18.871,21.262c-0.814,0.883-3.105,1.29-4.273,0.824
		c-16.211-6.452-32.363-13.052-48.453-19.8c-1.021-0.43-2.22-2.582-1.962-3.577c1.998-7.706,4.333-15.324,6.33-22.168
		C281.744,267.152,303.746,274.829,326.551,282.787z"/>
	<path fill="#FFFFFF" d="M31.871,12.003c10.577-0.01,19.43,8.745,19.459,19.245c0.029,10.472-8.799,19.453-19.263,19.595
		c-10.743,0.146-19.649-8.788-19.591-19.654C12.533,20.507,21.119,12.013,31.871,12.003z"/>
	<path fill="#FFFFFF" d="M371.932,34.945c0.014-10.339,9.193-19.385,19.543-19.252c10.576,0.137,19.309,8.976,19.27,19.506
		c-0.041,10.812-8.932,19.555-19.785,19.455C380.48,54.557,371.918,45.688,371.932,34.945z"/>
	<path fill="#FFFFFF" d="M298.475,313.331c-7.733,4.887-14.644,9.302-21.627,13.595c-0.735,0.452-1.954,0.4-2.88,0.224
		c-9.42-1.813-18.826-3.696-28.979-5.708c1.647-9.578,3.205-18.634,4.824-28.051C265.974,300.014,281.538,306.391,298.475,313.331z"
		/>
	<path fill="#FFFFFF" d="M119.601,307.878c-18.339-16.818-31.134-36.381-39.153-59.891c10.05,8.258,19.435,16.103,28.979,23.748
		c3.891,3.116,8.204,5.7,12.154,8.749c1.123,0.865,2.486,2.637,2.312,3.773C122.719,291.94,121.161,299.563,119.601,307.878z"/>
	<path fill="#FFFFFF" d="M260.152,334.995c-5.302,1.682-10.604,3.364-16.615,5.271c0.177-3.361,0.313-5.958,0.504-9.635
		c5.534,1.097,10.715,2.124,15.894,3.15C260.006,334.186,260.08,334.591,260.152,334.995z"/>
</g>
<g>
	<rect x="315.818" y="340.829" width="27" height="127"/>
	<rect x="265.819" y="390.829" width="127" height="27"/>
</g>
<g>
	<rect x="401.047" y="253.829" width="27" height="127"/>
	<rect x="351.047" y="303.829" width="127" height="27"/>
</g>
</svg>
